/* XPM */
static const char * add_16x16_xpm[] = {
"16 16 119 2",
"  	c None",
". 	c #CED6EF",
"+ 	c #E7EFF7",
"@ 	c #F7F7F7",
"# 	c #EFE7E7",
"$ 	c #ADCEEF",
"% 	c #CECECE",
"& 	c #EFEFF7",
"* 	c #94B5E7",
"= 	c #FFF7F7",
"- 	c #B5B5C6",
"; 	c #2E5FCE",
"> 	c #ADC6EF",
", 	c #BDC6D6",
"' 	c #B5C6DE",
") 	c #C6D6E7",
"! 	c #EFF7F7",
"~ 	c #6D8CD6",
"{ 	c #ACCDEF",
"] 	c #D6E7F7",
"^ 	c #A0B3EA",
"/ 	c #94ADE7",
"( 	c #5A94DE",
"_ 	c #3D70D3",
": 	c #2E65CF",
"< 	c #3B6CCA",
"[ 	c #7791CE",
"} 	c #84A5DE",
"| 	c #99B8EE",
"1 	c #3365CF",
"2 	c #5585D1",
"3 	c #6690DC",
"4 	c #799BDB",
"5 	c #6F98DD",
"6 	c #4374D0",
"7 	c #6F9AE1",
"8 	c #A2B5EC",
"9 	c #CECED6",
"0 	c #4384D6",
"a 	c #A5B5CE",
"b 	c #396BCE",
"c 	c #517FD8",
"d 	c #C6CEDE",
"e 	c #6F96DC",
"f 	c #84ADE7",
"g 	c #89A6E5",
"h 	c #7192D6",
"i 	c #2C61D2",
"j 	c #9EC2EB",
"k 	c #104DC5",
"l 	c #739BDE",
"m 	c #90AFEB",
"n 	c #E7E7DE",
"o 	c #6B90D5",
"p 	c #9CBDEF",
"q 	c #3063CE",
"r 	c #D6D6D6",
"s 	c #2958CA",
"t 	c #2962CE",
"u 	c #316ACE",
"v 	c #5F84D4",
"w 	c #7EA1E5",
"x 	c #5F86D6",
"y 	c #5D86D8",
"z 	c #5885D9",
"A 	c #3868D0",
"B 	c #C6C6C6",
"C 	c #3B75D6",
"D 	c #4C7FD1",
"E 	c #3970D2",
"F 	c #5080D7",
"G 	c #7DA8EA",
"H 	c #BDC6DE",
"I 	c #9CB5E7",
"J 	c #6E93DB",
"K 	c #93BDED",
"L 	c #FFFFF7",
"M 	c #B5D6F7",
"N 	c #8CADE7",
"O 	c #A6BFDD",
"P 	c #B0CFF0",
"Q 	c #F7F7FF",
"R 	c #538BDE",
"S 	c #6691DA",
"T 	c #FBFBFB",
"U 	c #C4C5C6",
"V 	c #808BDC",
"W 	c #BDBDCE",
"X 	c #6C99E0",
"Y 	c #90B5E7",
"Z 	c #B5CEEF",
"` 	c #BDC6C6",
" .	c #F6F9FB",
"..	c #7899D6",
"+.	c #316BCE",
"@.	c #215ACE",
"#.	c #ADC0ED",
"$.	c #AACDEF",
"%.	c #2E60CE",
"&.	c #B4CCF0",
"*.	c #2760CD",
"=.	c #2963CE",
"-.	c #3669D1",
";.	c #6D95DD",
">.	c #6B9EE4",
",.	c #84A5D6",
"'.	c #6BA5E7",
").	c #6E90DF",
"!.	c #7CA6E6",
"~.	c #A5C5F0",
"{.	c #386ED1",
"].	c #3163CE",
"^.	c #6386D2",
"/.	c #D6DEEF",
"(.	c #BDCEE7",
"_.	c #C6CEE7",
":.	c #FFFFFF",
"<.	c #C6D6EF",
"[.	c #DEE7F7",
"          ) ) . . <.<.          ",
"      <.+ @ :.:.:.:.@ [.[.      ",
"    <.& :.] M $ > > ] :.+ _.    ",
"  <.& :.$ $.Y P j { { p :.+ /.  ",
"  [.:.Z K &.G ;.l !.m | * :./.  ",
". Q + '.~.S y :.:.4 c w +./.! _.",
". :.$ ( >.5 V :. .^ F 6 k N = _.",
"/.:.* R X :.:.:.:.:.:.J i ~ @ _.",
"/.:.f 0 7 :.:.:.:.:.:.g _ ~ # _.",
". :.I C z 3 e :.:.O ).D : ,.n (.",
"_.:.[.b 1 A x :.T #.{.; u , 9 (.",
"  [.:./ @.].q ^.8 2 %.*...% ,   ",
"  (.! L } =.; -.s E t [ U W (.  ",
"    _.& = _.h o < v a B - '     ",
"      (./.# # r % % ` - (.      ",
"          _._.d H ' (.          "};
