/* XPM */
static const char * back_32x32_xpm[] = {
"32 32 218 2",
"  	c None",
". 	c #3A7304",
"+ 	c #97C16E",
"@ 	c #9AC472",
"# 	c #A3CA7E",
"$ 	c #9AC571",
"% 	c #62A522",
"& 	c #A3CB7E",
"* 	c #96C36C",
"= 	c #5AA117",
"- 	c #4F9B06",
"; 	c #A4CC7E",
"> 	c #8FBF61",
", 	c #549D0E",
"' 	c #4E9A06",
") 	c #509E07",
"! 	c #A5CD7E",
"~ 	c #84B953",
"{ 	c #509B08",
"] 	c #4F9C06",
"^ 	c #52A007",
"/ 	c #A6CF7F",
"( 	c #79B242",
"_ 	c #4E9B06",
": 	c #519E07",
"< 	c #53A108",
"[ 	c #A7D07F",
"} 	c #6DAB31",
"| 	c #54A308",
"1 	c #A7D17F",
"2 	c #A8D27F",
"3 	c #A8D380",
"4 	c #A9D580",
"5 	c #AAD681",
"6 	c #ABD781",
"7 	c #ACD881",
"8 	c #ACD981",
"9 	c #ACD982",
"0 	c #62A523",
"a 	c #55A509",
"b 	c #57A80A",
"c 	c #59AC0B",
"d 	c #5CAF0C",
"e 	c #5EB20C",
"f 	c #5FB50D",
"g 	c #61B70E",
"h 	c #63B90F",
"i 	c #64BB0F",
"j 	c #64BC0F",
"k 	c #65BD10",
"l 	c #63BA0F",
"m 	c #ADD982",
"n 	c #5DA21B",
"o 	c #519B0A",
"p 	c #509B09",
"q 	c #519F07",
"r 	c #56A609",
"s 	c #58AA0A",
"t 	c #5BAD0B",
"u 	c #5DB10C",
"v 	c #5FB40D",
"w 	c #66BE10",
"x 	c #66BF10",
"y 	c #67C010",
"z 	c #67BF10",
"A 	c #65BC0F",
"B 	c #AEDB82",
"C 	c #5AA018",
"D 	c #549D0F",
"E 	c #519D08",
"F 	c #54A408",
"G 	c #59AB0B",
"H 	c #5EB20D",
"I 	c #60B60E",
"J 	c #62B90E",
"K 	c #68C111",
"L 	c #69C211",
"M 	c #69C311",
"N 	c #AEDC82",
"O 	c #58A015",
"P 	c #579F13",
"Q 	c #589F14",
"R 	c #58A113",
"S 	c #52A108",
"T 	c #57A90A",
"U 	c #5AAC0B",
"V 	c #5CB00C",
"W 	c #63BB0F",
"X 	c #69C412",
"Y 	c #6BC612",
"Z 	c #AFDD83",
"` 	c #5BA118",
" .	c #5BA119",
"..	c #5DA519",
"+.	c #59A510",
"@.	c #58A90A",
"#.	c #5AAD0B",
"$.	c #60B50D",
"%.	c #62B80E",
"&.	c #6DC813",
"*.	c #6DC913",
"=.	c #B0DE83",
"-.	c #5DA31C",
";.	c #5EA31D",
">.	c #61A71E",
",.	c #61AA1D",
"'.	c #57A60A",
").	c #5BAE0B",
"!.	c #5DB20C",
"~.	c #6AC512",
"{.	c #6CC813",
"].	c #6ECB14",
"^.	c #6FCD14",
"/.	c #60A420",
"(.	c #61A521",
"_.	c #64A923",
":.	c #66AC24",
"<.	c #61AC1A",
"[.	c #65BE10",
"}.	c #68C211",
"|.	c #70CD14",
"1.	c #71D015",
"2.	c #6DCA13",
"3.	c #B0DF83",
"4.	c #64A625",
"5.	c #64A726",
"6.	c #65A727",
"7.	c #66A728",
"8.	c #68AA28",
"9.	c #69AE27",
"0.	c #6BB128",
"a.	c #5DAD12",
"b.	c #6BC512",
"c.	c #68A92B",
"d.	c #69A92C",
"e.	c #6BAC2C",
"f.	c #6CAF2C",
"g.	c #6EB22C",
"h.	c #6CB427",
"i.	c #6BAB2F",
"j.	c #6CAB30",
"k.	c #6DAE30",
"l.	c #70B131",
"m.	c #71B331",
"n.	c #72B631",
"o.	c #67B31F",
"p.	c #6FAD34",
"q.	c #70AD35",
"r.	c #70AF35",
"s.	c #71B235",
"t.	c #73B535",
"u.	c #75B836",
"v.	c #76BA35",
"w.	c #60B212",
"x.	c #73AF3A",
"y.	c #73B039",
"z.	c #75B339",
"A.	c #76B639",
"B.	c #77B93A",
"C.	c #78BB39",
"D.	c #75BB32",
"E.	c #60B310",
"F.	c #76B13F",
"G.	c #76B03E",
"H.	c #77B13E",
"I.	c #77B43E",
"J.	c #79B73E",
"K.	c #7AB93E",
"L.	c #7BBC3D",
"M.	c #7DBE3D",
"N.	c #78BE34",
"O.	c #61B510",
"P.	c #90BF64",
"Q.	c #80B64D",
"R.	c #7FB64C",
"S.	c #7FB64B",
"T.	c #80B84B",
"U.	c #81BA4A",
"V.	c #BADA9B",
"W.	c #BCDC9E",
"X.	c #BDDD9E",
"Y.	c #BDDE9E",
"Z.	c #BDDE9D",
"`.	c #BCDF9B",
" +	c #B7DC92",
".+	c #ABD880",
"++	c #A9D77D",
"@+	c #A8D77C",
"#+	c #A7D67A",
"$+	c #A7D679",
"%+	c #A5D578",
"&+	c #A4D376",
"*+	c #9CC674",
"=+	c #83B851",
"-+	c #82B850",
";+	c #82B84E",
">+	c #82BB4D",
",+	c #BCDB9F",
"'+	c #A7CC85",
")+	c #86BA56",
"!+	c #86BA55",
"~+	c #84BA51",
"{+	c #BDDBA0",
"]+	c #B1D392",
"^+	c #8BBC5C",
"/+	c #88BB58",
"(+	c #87BB56",
"_+	c #BEDAA2",
":+	c #B9D79D",
"<+	c #91BF64",
"[+	c #89BC59",
"}+	c #BEDAA4",
"|+	c #BED9A4",
"1+	c #98C36E",
"2+	c #BFDAA5",
"3+	c #BDD8A3",
"4+	c #C3DCAA",
"5+	c #B8D59D",
"                                . .                             ",
"                              . + .                             ",
"                            . @ # .                             ",
"                          . $ % & .                             ",
"                        . * = - ; .                             ",
"                      . > , ' ) ! .                             ",
"                    . ~ { ' ] ^ / .                             ",
"                  . ( ' ' _ : < [ . . . . . . . . . . . . . .   ",
"                . } ' ' ' ] ^ | 1 2 3 4 5 6 7 7 8 9 8 7 7 6 .   ",
"              . 0 ' ' ' ' ) < a b c d e f g h i j k j i l m .   ",
"            . n o o o p - q | r s t u v g l j w x y z w A B .   ",
"          . C D D D D D E ^ F b G d H I J j x K L M M K x N .   ",
"        . O P Q Q Q Q Q R S a T U V v g W w K X Y Y Y X K Z .   ",
"      . = ` ` `  . . .` ..+.a @.#.u $.%.j y M Y &.*.*.Y M =..   ",
"    . n -.;.;.;.;.;.;.;.>.,.'.s ).!.$.h k K ~.{.].^.].&.~.=..   ",
"  . /.(.(.% % 0 0 0 0 % _.:.<.s ).e I l [.}.Y *.|.1.|.2.Y 3..   ",
"    . 4.5.6.6.6.6.7.6.6.8.9.0.a.).e I l [.}.b.*.|.1.|.2.Y 3..   ",
"      . c.c.d.d.d.d.d.d.e.f.g.h.).!.$.h k K ~.{.].^.].{.~.=..   ",
"        . i.j.j.j.j.j.j.k.l.m.n.o.u f %.j y M Y {.*.*.Y M =..   ",
"          . p.q.q.q.q.p.r.s.t.u.v.w.v g W w K X b.Y Y X K Z .   ",
"            . x.x.x.x.x.y.z.A.B.C.D.E.I J j x K }.M L K x N .   ",
"              . F.F.F.G.H.I.J.K.L.M.N.O.g l j w x y x w j B .   ",
"                . P.Q.Q.R.S.T.U.V.W.X.Y.Z.`. +.+++@+#+$+%+&+.   ",
"                  . *+=+=+-+;+>+,+. . . . . . . . . . . . . .   ",
"                    . '+)+!+~ ~+{+.                             ",
"                      . ]+^+/+(+_+.                             ",
"                        . :+<+[+}+.                             ",
"                          . |+1+2+.                             ",
"                            . 3+4+.                             ",
"                              . 5+.                             ",
"                                . .                             ",
"                                                                "};
