/* XPM */
static const char *close_16x16_xpm[] = {
"16 16 76 1",
" 	c None",
".	c #EC8D76",
"+	c #EA8167",
"@	c #E8765B",
"#	c #E77054",
"$	c #E66C4F",
"%	c #E6694A",
"&	c #E5694B",
"*	c #E56546",
"=	c #E3603F",
"-	c #E35D3B",
";	c #E25431",
">	c #D84723",
",	c #EC8E77",
"'	c #E46241",
")	c #DB522F",
"!	c #BA3919",
"~	c #EA856B",
"{	c #E35C3A",
"]	c #FFFFFF",
"^	c #DC5330",
"/	c #BC3E1E",
"(	c #E8795E",
"_	c #E15330",
":	c #BD4223",
"<	c #E76F53",
"[	c #DC512D",
"}	c #BE4223",
"|	c #DC502A",
"1	c #BF4121",
"2	c #E56445",
"3	c #DE4E25",
"4	c #BF3F1D",
"5	c #E45F3F",
"6	c #DF4C1F",
"7	c #C03C18",
"8	c #E25835",
"9	c #E04818",
"0	c #C23812",
"a	c #E1512C",
"b	c #E1430F",
"c	c #C1330B",
"d	c #DF4822",
"e	c #E9480E",
"f	c #E13E08",
"g	c #C12E05",
"h	c #DE4119",
"i	c #E8430A",
"j	c #E03904",
"k	c #BE2B02",
"l	c #D43811",
"m	c #D9441F",
"n	c #DA4D2A",
"o	c #DA512F",
"p	c #DB512E",
"q	c #DB512C",
"r	c #DC5129",
"s	c #DF4F24",
"t	c #E04B1C",
"u	c #E04715",
"v	c #E0420D",
"w	c #E03A05",
"x	c #D73201",
"y	c #B52600",
"z	c #B5300F",
"A	c #B83616",
"B	c #B8391A",
"C	c #B7391A",
"D	c #BB3918",
"E	c #B93917",
"F	c #BD3713",
"G	c #C0350D",
"H	c #C0320A",
"I	c #BE2F07",
"J	c #C02C02",
"K	c #B62600",
"                ",
"  .+@#$%&*=-;>  ",
" ,''''''''''')! ",
" ~{]]{{{{{{]]^/ ",
" (_]]]____]]]): ",
" <[[]]][[]]][[} ",
" $|||]]]]]]|||1 ",
" 23333]]]]33334 ",
" 56666]]]]66667 ",
" 8999]]]]]]9990 ",
" abb]]]bb]]]bbc ",
" de]]]eeee]]]fg ",
" hi]]iiiiii]]jk ",
" lmnopqrstuvwxy ",
"  zABCDEFGHIJK  ",
"                "};
