/* XPM */
static const char * delete_16x16_xpm[] = {
"16 16 8 1",
" 	c None",
".	c #996666",
"+	c #FF0000",
"@	c #CC0000",
"#	c #FF6600",
"$	c #CC3333",
"%	c #FF9933",
"&	c #990000",
"                ",
"                ",
" .@.         @  ",
" @%+&      @&   ",
"  @++&    @&    ",
"    @+&  @&     ",
"     @+&@&      ",
"      @+&       ",
"     @+&+&      ",
"    @+&  +&     ",
"   @+&    +&    ",
"  $#@      +    ",
" $%+&       +   ",
" $+&            ",
"  &          +  ",
"                "};
