/* XPM */
static const char * error_16x16_xpm[] = {
"16 16 85 1",
" 	c None",
".	c #9D0808",
"+	c #B63E3E",
"@	c #C56060",
"#	c #EFBBBB",
"$	c #D17A7A",
"%	c #E79191",
"&	c #FDD8D8",
"*	c #F0C1C1",
"=	c #EDB6B6",
"-	c #FEF8F8",
";	c #E99898",
">	c #EFB0B0",
",	c #D34C4C",
"'	c #AD2C2C",
")	c #AA2424",
"!	c #E59797",
"~	c #B11C1C",
"{	c #F1BEBE",
"]	c #C02525",
"^	c #C45E5E",
"/	c #E29595",
"(	c #C92D2D",
"_	c #EFACAC",
":	c #CB6767",
"<	c #EB9C9C",
"[	c #C52F2F",
"}	c #AE1717",
"|	c #B41919",
"1	c #E8A0A0",
"2	c #F6DBDB",
"3	c #AC2A2A",
"4	c #F3B8B8",
"5	c #BE4848",
"6	c #FAE9E9",
"7	c #D24E4E",
"8	c #BD4848",
"9	c #9B0505",
"0	c #990000",
"a	c #EFBCBC",
"b	c #EBACAC",
"c	c #D86F6F",
"d	c #EEB9B9",
"e	c #D05555",
"f	c #F1BDBD",
"g	c #E89696",
"h	c #DB6C6C",
"i	c #ECA3A3",
"j	c #F1C5C5",
"k	c #F4CFCF",
"l	c #D97171",
"m	c #EFB8B8",
"n	c #CE5353",
"o	c #DD7373",
"p	c #F2C4C4",
"q	c #C45050",
"r	c #D24B4B",
"s	c #F1C1C1",
"t	c #9E0A0A",
"u	c #BB3232",
"v	c #DF7777",
"w	c #E9A6A6",
"x	c #F4D2D2",
"y	c #A92222",
"z	c #D24A4A",
"A	c #DA6A6A",
"B	c #FCF2F2",
"C	c #F6D6D6",
"D	c #C55252",
"E	c #FAE7E7",
"F	c #9F0D0D",
"G	c #A71F1F",
"H	c #BC3333",
"I	c #9A0303",
"J	c #D96363",
"K	c #CC3737",
"L	c #C76363",
"M	c #E48585",
"N	c #F1B0B0",
"O	c #D65858",
"P	c #CF4141",
"Q	c #EEA6A6",
"R	c #DD6F6F",
"S	c #E17A7A",
"T	c #FFFFFF",
"     L'II'L     ",
"   $.:/44/:.$   ",
"  +8!NNNNNN!8+  ",
" @5Q_QQQQQQ_Q5L ",
" I;>--><<iB->gI ",
"@D%%pT6;;6Tf%%qL",
"ylMMM{TECT{MMMc)",
"9vSSSSsTTmSSSSoF",
"9hRRRRkTTjRRRRAt",
"GeJJJ*Tb*T*JJJn)",
"^HOOaTaOOxTwOOu@",
" Ir1T2,,,O2T1zI ",
" ^~P7PPPPPP7P~@ ",
"  +}[KKKKKK[}+  ",
"   $.|]((]|.$   ",
"     L3003L     "};
