/* XPM */
static const char * folder_16x16_xpm[] = {
"16 16 48 1",
" 	c None",
".	c #CC9934",
"+	c #FFCC67",
"@	c #B3811B",
"#	c #CB9833",
"$	c #7F7F7F",
"%	c #C08D28",
"&	c #BA8722",
"*	c #BD8A25",
"=	c #A06E08",
"-	c #6B6B6B",
";	c #C28F2A",
">	c #FFE681",
",	c #AE7C16",
"'	c #C7942F",
")	c #A3710B",
"!	c #B07E18",
"~	c #888888",
"{	c #C99631",
"]	c #9C6A04",
"^	c #B5821D",
"/	c #B88520",
"(	c #9E6C06",
"_	c #996701",
":	c #9A6802",
"<	c #B4811C",
"[	c #EFBC57",
"}	c #DCA944",
"|	c #F8C560",
"1	c #BC8924",
"2	c #4A4A4A",
"3	c #AB7913",
"4	c #C2C2C2",
"5	c #BF8C27",
"6	c #A87610",
"7	c #E6B34E",
"8	c #A5730D",
"9	c #B7841F",
"0	c #D3A03B",
"a	c #FFD46F",
"b	c #FFE07B",
"c	c #C5922D",
"d	c #FFEB85",
"e	c #FFF791",
"f	c #6A6A6A",
"g	c #FFFFFF",
"h	c #FFFF99",
"i	c #FFF48E",
"                ",
"  .#{'          ",
" .gggg;4        ",
".ghhhhg*&9^@!   ",
"#eiiiiiggggg,~  ",
"{d>cccccc%1/<@@ ",
"'bcggggggggg>g)~",
"ca.hhhhhhhhh|h=-",
";+#heeeeeeee[h(f",
"%+chdddddddd7h]f",
"*+5hbbbbbbbb}h:f",
"&+/haaaaaaaa0h_-",
" ^@!,368)=(]:_2$",
"  $fffffffffff$ ",
"                ",
"                "};
