/* XPM */
static const char * help_16x16_xpm[] = {
"16 16 163 2",
"  	c None",
". 	c #95A9C6",
"+ 	c #204A87",
"@ 	c #5373A2",
"# 	c #6582AC",
"$ 	c #5474A3",
"% 	c #2D5690",
"& 	c #EDF0F5",
"* 	c #345B91",
"= 	c #EBEFF4",
"- 	c #E6EBF2",
"; 	c #2D558E",
"> 	c #BDC9DB",
", 	c #789BC5",
"' 	c #C0CCDD",
") 	c #4D6FA0",
"! 	c #5575A4",
"~ 	c #3A6299",
"{ 	c #40679D",
"] 	c #E8EDF3",
"^ 	c #96AAC7",
"/ 	c #8BA1C1",
"( 	c #A9B9D0",
"_ 	c #97ABC7",
": 	c #3B6096",
"< 	c #365C93",
"[ 	c #5878A5",
"} 	c #EFF3F7",
"| 	c #EDF1F7",
"1 	c #F1F4F8",
"2 	c #4B72A5",
"3 	c #7296C1",
"4 	c #A1B5CF",
"5 	c #6986AF",
"6 	c #6987B1",
"7 	c #6A8EBA",
"8 	c #678BB9",
"9 	c #386097",
"0 	c #90A5C3",
"a 	c #EFF3F8",
"b 	c #2A538E",
"c 	c #4C72A5",
"d 	c #CAD6E5",
"e 	c #3B639A",
"f 	c #708CB4",
"g 	c #A7BAD3",
"h 	c #386098",
"i 	c #6085B4",
"j 	c #728FB7",
"k 	c #5978A6",
"l 	c #47699C",
"m 	c #4D73A6",
"n 	c #CBD6E5",
"o 	c #E9EEF3",
"p 	c #335A91",
"q 	c #B7C6DA",
"r 	c #3C649A",
"s 	c #A0B9D7",
"t 	c #2D548E",
"u 	c #6587B3",
"v 	c #5278A9",
"w 	c #8DA2C1",
"x 	c #86A1C3",
"y 	c #AABAD1",
"z 	c #BDCADC",
"A 	c #F9FBFC",
"B 	c #8BA5C7",
"C 	c #7191BB",
"D 	c #C6D2E1",
"E 	c #F0F3F7",
"F 	c #ADBCD3",
"G 	c #FBFCFD",
"H 	c #C9D7E7",
"I 	c #5E83B2",
"J 	c #6B89B3",
"K 	c #F1F5F9",
"L 	c #6589B7",
"M 	c #6D8BB5",
"N 	c #C2CEDE",
"O 	c #7999C1",
"P 	c #617FAA",
"Q 	c #5A7FB0",
"R 	c #597AA8",
"S 	c #6280AB",
"T 	c #6280AA",
"U 	c #7396C1",
"V 	c #456CA1",
"W 	c #466DA1",
"X 	c #355B93",
"Y 	c #496FA3",
"Z 	c #345C95",
"` 	c #345B92",
" .	c #6C8DB7",
"..	c #EFF2F6",
"+.	c #335B94",
"@.	c #547AAC",
"#.	c #5676A5",
"$.	c #9DB7D6",
"%.	c #E7EBF2",
"&.	c #6B8FBB",
"*.	c #E9EDF3",
"=.	c #6F92BD",
"-.	c #6482AD",
";.	c #F2F5F9",
">.	c #A7B8D0",
",.	c #BAC9DD",
"'.	c #D6DEE9",
").	c #5777A5",
"!.	c #567CAD",
"~.	c #7594BD",
"{.	c #6387B6",
"].	c #7093BF",
"^.	c #4B6E9F",
"/.	c #E4E9F0",
"(.	c #6985AE",
"_.	c #A0B5D0",
":.	c #95AAC6",
"<.	c #9BAFCB",
"[.	c #6C88B0",
"}.	c #335C94",
"|.	c #6284B2",
"1.	c #385E95",
"2.	c #F0F3F8",
"3.	c #E5EAF1",
"4.	c #2F5891",
"5.	c #355C92",
"6.	c #385E94",
"7.	c #436A9F",
"8.	c #325B94",
"9.	c #E3E8F0",
"0.	c #829DC1",
"a.	c #6286B4",
"b.	c #E8ECF3",
"c.	c #CDDAE9",
"d.	c #2C548E",
"e.	c #7497C1",
"f.	c #8FA8C8",
"g.	c #CCD7E6",
"h.	c #5176A7",
"i.	c #C8D4E4",
"j.	c #9FB7D5",
"k.	c #42699F",
"l.	c #91A6C3",
"m.	c #8DA3C1",
"n.	c #5878A6",
"o.	c #254F8A",
"p.	c #6783AD",
"q.	c #345D95",
"r.	c #D1DBE8",
"s.	c #FEFEFE",
"t.	c #E6EAF1",
"u.	c #FDFDFE",
"v.	c #94ADCC",
"w.	c #7591B7",
"x.	c #89A1C2",
"y.	c #6A86AF",
"z.	c #9BB2D1",
"A.	c #365D93",
"B.	c #27508B",
"C.	c #8BA1C0",
"D.	c #2B538D",
"E.	c #DCE3EC",
"F.	c #FFFFFF",
"          C.@ D.D.@ C.          ",
"      . * w > = = > m.p ^       ",
"    $ P 9.( # : : # y /.T $     ",
"  . p.%.k l N E t.>.) -.] S .   ",
"  5.3.[ + [.u.'...F.z h J - *   ",
"C.0 ( + + ^.) 8.R F.G W 7.q :.C.",
"@ ' # + B.% Z ~ x.F.b.2 m x D ! ",
"D.& < o.% q.e M A s.0.@.!. .} d.",
"D.& 6.b +.~ k.] F._.Q I i ~.2.t ",
"@ ' y.4.9 { h.i.d a.{.8 7 z.g.#.",
"C.l.F }.r V v f.v.L &.].U H 4 / ",
"  ` - 6 { Y |.F.F.=.3 , $.| A.  ",
"  ^ (.o j c u F.F.e., s K f _   ",
"    $ 5 *.,.B C O j.c.a w.n.    ",
"      . X <.n 1 ;.r.g 1._       ",
"          C.! ; ; )./           "};
