/* XPM */
static const char * info_16x16_xpm[] = {
"16 16 4 1",
" 	c None",
".	c #5497DA",
"+	c #0267CC",
"@	c #FFFFFF",
"     ..++..     ",
"   .++++++++.   ",
"  .+++++..+++.  ",
" .++++++@@.+++. ",
" ++++++.@@+++++ ",
".++++++++++++++.",
".+++++.@@.+++++.",
"+++++++@@.++++++",
"+++++++@@.++++++",
".+++++.@@++++++.",
".+++++.@@++++++.",
" +++++@@.++++++ ",
" .++++@@@.++++. ",
"  .++++++++++.  ",
"   .++++++++.   ",
"     ..++..     "};
