/* XPM */
static const char * list_16x16_xpm[] = {
"16 16 7 1",
" 	c None",
".	c #8FAAD7",
"+	c #013DA4",
"@	c #3364BA",
"#	c #FFFFFF",
"$	c #6085C6",
"%	c #2155AF",
"   ..........   ",
" ..++++++++++.. ",
" .@##########@. ",
".+##++#+++++##+.",
".+############+.",
".+##++#+++++##+.",
".+##..#.....##+.",
".+############+.",
".+##++#+++++##+.",
".+##..#.....##+.",
".+############+.",
".+##++#+++++##+.",
".+##..#.....##+.",
" .$##########@. ",
" ..%%++++++++.. ",
"   ..........   "};
