/* XPM */
static const char * list_forward_xpm[] = {
"20 20 2 1",
" 	c None",
".	c #777777",
"                    ",
"                    ",
"                    ",
"                    ",
"                    ",
"       ..           ",
"      ....          ",
"      .....         ",
"       .....        ",
"        .....       ",
"         .....      ",
"        .....       ",
"       .....        ",
"      .....         ",
"      ....          ",
"       ..           ",
"                    ",
"                    ",
"                    ",
"                    "};
