/* XPM */
static const char * play_16x16_xpm[] = {
"16 16 64 1",
" 	c None",
".	c #05699B",
"+	c #0B6D9E",
"@	c #0D6E9F",
"#	c #1170A0",
"$	c #1471A1",
"%	c #1673A2",
"&	c #1774A2",
"*	c #1A76A3",
"=	c #1C77A5",
"-	c #1F79A6",
";	c #1D78A5",
">	c #227BA7",
",	c #247DA9",
"'	c #277EAA",
")	c #237BA8",
"!	c #267DA9",
"~	c #287EAA",
"{	c #2A80AB",
"]	c #2C82AB",
"^	c #2F83AC",
"/	c #297FAB",
"(	c #2B81AB",
"_	c #2E82AC",
":	c #3184AD",
"<	c #3285AF",
"[	c #3586AF",
"}	c #3888B0",
"|	c #2F82AC",
"1	c #3184AE",
"2	c #3386AE",
"3	c #3687AF",
"4	c #3889B1",
"5	c #3B8AB1",
"6	c #3E8BB2",
"7	c #408DB4",
"8	c #3A89B1",
"9	c #3C8AB2",
"0	c #3F8CB3",
"a	c #438FB5",
"b	c #4591B7",
"c	c #3D8CB2",
"d	c #428EB5",
"e	c #4590B5",
"f	c #4792B7",
"g	c #4993B8",
"h	c #418EB4",
"i	c #448FB5",
"j	c #4590B6",
"k	c #4892B7",
"l	c #4B93B8",
"m	c #4D95B9",
"n	c #4791B6",
"o	c #4A93B8",
"p	c #4C95B9",
"q	c #4E96BA",
"r	c #5097BA",
"s	c #4F96BA",
"t	c #5198BB",
"u	c #5398BC",
"v	c #5298BC",
"w	c #5398BB",
"x	c #5399BB",
"y	c #5298BB",
"      .         ",
"      +@        ",
"      #$%       ",
"      &*=-      ",
"      ;->,'     ",
"      )!~{]^    ",
"      /(_:<[}   ",
"      |1234567  ",
"      [}8907ab  ",
"      5c7defg   ",
"      hijklm    ",
"      nopqr     ",
"      mstu      ",
"      uvw       ",
"      xu        ",
"      y         "};
