/* XPM */
static const char *preferences_16x16_xpm[] = {
"16 16 6 1",
" 	c None",
".	c #A1B897",
"+	c #374730",
"@	c #5A744F",
"#	c #7A9A6D",
"$	c #4D6344",
"                ",
"  .+++++++++.   ",
" .@         @.  ",
" +           +  ",
" + +. +++++. +  ",
" + .. ...... +  ",
" +           +  ",
" + +. +++++. +  ",
" + .. ...... +  ",
" +           +  ",
" + +. +++++. +  ",
" + .. ...... +  ",
" .#         @.  ",
"  .$++++++++.   ",
"                ",
"                "};
