/* XPM */
static const char * refresh_16x16_xpm[] = {
"16 16 22 1",
" 	c None",
".	c #FEFDEF",
"+	c #F9E894",
"@	c #F9E38B",
"#	c #F4E6AE",
"$	c #F9DD7A",
"%	c #F1DA83",
"&	c #FCEDB9",
"*	c #B79324",
"=	c #B79424",
"-	c #B99625",
";	c #BE9C28",
">	c #F1D373",
",	c #FBE499",
"'	c #B38D22",
")	c #B28D22",
"!	c #F9D366",
"~	c #A77E1C",
"{	c #AB841E",
"]	c #AC841F",
"^	c #AC851F",
"/	c #F9CD5F",
"                ",
"     ;;         ",
"     ;.;        ",
"   ;;;..;       ",
"  ;%&&&&+;      ",
" =>,,,,,$*      ",
" ~,/~~,/~       ",
" ~/~ ~/~      ; ",
" ~~  ~~  ;;  ;; ",
" =      ;.; ;.; ",
"       ;..;;#.; ",
"      -%&&&&&@; ",
"      )$,,,,$'  ",
"       ^!,]]{   ",
"        ~!~     ",
"         ~~     "};
