/* XPM */
static const char * save_16x16_xpm[] = {
"16 16 12 1",
" 	c None",
".	c #802020",
"+	c #FFFFFF",
"@	c #EEEEEE",
"#	c #E6E6E6",
"$	c #D7D7D7",
"%	c #BFBFBF",
"&	c #A1A1A1",
"*	c #808080",
"=	c #404040",
"-	c #333333",
";	c #000000",
"                ",
" ;;;;;;;;;;;;;;;",
" ;=...........=;",
" ;;+++++++++++;;",
" ;=+%%%%%%%%%+=;",
" ;=+++++++++++=;",
" ;=+%%%%%%%%%+=;",
" ;=+++++++++++=;",
" ;=%+++++++++%=;",
" ;=============;",
" ;=============;",
" ;===&%%%$#&--=;",
" ;===%-%$@$%--=;",
" ;=*=%-$@$%%--=;",
" ;===%$#$%%%--=;",
"  ;;;;;;;;;;;;;;"};
