/* XPM */
static const char * stop_16x16_xpm[] = {
"16 16 83 1",
" 	c None",
".	c #000000",
"+	c #F05454",
"@	c #F05453",
"#	c #EF5453",
"$	c #F05353",
"%	c #EF5353",
"&	c #F05856",
"*	c #F05857",
"=	c #F15856",
"-	c #F15756",
";	c #F05756",
">	c #F15C5A",
",	c #F05C5A",
"'	c #F15C59",
")	c #F15B5A",
"!	c #F05B5A",
"~	c #F15B59",
"{	c #F2605D",
"]	c #F25F5D",
"^	c #F1605C",
"/	c #F25F5C",
"(	c #F15F5C",
"_	c #F15F5D",
":	c #F25E5D",
"<	c #F26460",
"[	c #F36360",
"}	c #F26360",
"|	c #F2645F",
"1	c #F2635F",
"2	c #F3635F",
"3	c #F26763",
"4	c #F36763",
"5	c #F36762",
"6	c #F26762",
"7	c #F26662",
"8	c #F36663",
"9	c #F36B67",
"0	c #F36B66",
"a	c #F46B66",
"b	c #F36B65",
"c	c #F46A66",
"d	c #F36A65",
"e	c #F46B65",
"f	c #F46F69",
"g	c #F56E69",
"h	c #F46E69",
"i	c #F46E68",
"j	c #F5736D",
"k	c #F4726D",
"l	c #F4736C",
"m	c #F5736C",
"n	c #F4726C",
"o	c #F5726C",
"p	c #F5726B",
"q	c #F57770",
"r	c #F67670",
"s	c #F57670",
"t	c #F5766F",
"u	c #F6766F",
"v	c #F5776F",
"w	c #F67A73",
"x	c #F67A72",
"y	c #F67972",
"z	c #F57A72",
"A	c #F67E76",
"B	c #F67E75",
"C	c #F77E75",
"D	c #F77E76",
"E	c #F67D75",
"F	c #F78279",
"G	c #F88279",
"H	c #F78278",
"I	c #F78179",
"J	c #F88178",
"K	c #F78178",
"L	c #F8867C",
"M	c #F8867B",
"N	c #F7857C",
"O	c #F8857C",
"P	c #F7867B",
"Q	c #F7867C",
"R	c #F8857B",
"................",
".+@#@@@#@$$##%%.",
".&*&=&&-&&=;=;-.",
".>,>'>)!~>''~~~.",
".{]{^^]/]((_]:(.",
".<<[}|1}12111}}.",
".34554444644768.",
".9000a0a0bcdbbe.",
".ffffghfffhhifi.",
".jklmnnloopoooo.",
".qqrstttuvttttt.",
".wwxxxwxxxxyyyz.",
".ABCDDDCBAECBBE.",
".FGGHFIGFJKKFKF.",
".LMLLNOPMQNLNRR.",
"................"};
