/* XPM */
static const char * warning_16x16_xpm[] = {
"16 16 141 2",
"  	c None",
". 	c #FFDB34",
"+ 	c #FFDB35",
"@ 	c #FFDA35",
"# 	c #FFDC34",
"$ 	c #FFDC33",
"% 	c #7C5C19",
"& 	c #FFDC35",
"* 	c #FFDD35",
"= 	c #7D5C19",
"- 	c #FFDD34",
"; 	c #FFFA3A",
"> 	c #FFE638",
", 	c #FFE127",
"' 	c #FFF038",
") 	c #FFDE34",
"! 	c #FFF83A",
"~ 	c #FFD42A",
"{ 	c #907C24",
"] 	c #927D23",
"^ 	c #5A5B64",
"/ 	c #FFE537",
"( 	c #67581C",
"_ 	c #FFF238",
": 	c #FFC617",
"< 	c #FFCA15",
"[ 	c #FFC616",
"} 	c #FFDF35",
"| 	c #FFDF36",
"1 	c #FFEE38",
"2 	c #FFDE36",
"3 	c #6A6E79",
"4 	c #FFE937",
"5 	c #5F5B61",
"6 	c #FFDD17",
"7 	c #F9B90F",
"8 	c #FFE337",
"9 	c #3F3515",
"0 	c #FFE237",
"a 	c #826A3F",
"b 	c #5E606B",
"c 	c #FFE137",
"d 	c #FFF43A",
"e 	c #FFE038",
"f 	c #605D5D",
"g 	c #8C703C",
"h 	c #8F713B",
"i 	c #957537",
"j 	c #FFDC31",
"k 	c #4E5158",
"l 	c #E4A817",
"m 	c #FEC415",
"n 	c #FFE736",
"o 	c #FFF839",
"p 	c #FFCD24",
"q 	c #FFDF24",
"r 	c #56411A",
"s 	c #E0A317",
"t 	c #E5A714",
"u 	c #AA873E",
"v 	c #FFE029",
"w 	c #5C5340",
"x 	c #7E5C18",
"y 	c #6C6C76",
"z 	c #FFE837",
"A 	c #FFE225",
"B 	c #7E5E1A",
"C 	c #4B4018",
"D 	c #544B3F",
"E 	c #626167",
"F 	c #FFE435",
"G 	c #6F727F",
"H 	c #E5A817",
"I 	c #312A14",
"J 	c #FFC915",
"K 	c #FFD935",
"L 	c #FFD835",
"M 	c #FFE338",
"N 	c #7D5D1B",
"O 	c #FFEB37",
"P 	c #FFD52B",
"Q 	c #FFEA37",
"R 	c #FFE436",
"S 	c #FFF339",
"T 	c #B4903A",
"U 	c #FFE438",
"V 	c #76633B",
"W 	c #FFE938",
"X 	c #877422",
"Y 	c #FFEA39",
"Z 	c #FFD126",
"` 	c #FFDD36",
" .	c #FFE336",
"..	c #CBB22D",
"+.	c #D2D5E4",
"@.	c #EAAC19",
"#.	c #FFE236",
"$.	c #FFE136",
"%.	c #C5C8D7",
"&.	c #71717D",
"*.	c #FFF93A",
"=.	c #C7CBD9",
"-.	c #564B1A",
";.	c #322C14",
">.	c #5A4C1A",
",.	c #FFE42D",
"'.	c #957C44",
").	c #FFE238",
"!.	c #06060C",
"~.	c #08090E",
"{.	c #191810",
"].	c #8A703A",
"^.	c #FFE838",
"/.	c #B6913A",
"(.	c #D99E17",
"_.	c #FFEC38",
":.	c #D4D7E6",
"<.	c #FFF139",
"[.	c #7A5C1D",
"}.	c #A28342",
"|.	c #DCA118",
"1.	c #856620",
"2.	c #7D6742",
"3.	c #746246",
"4.	c #000008",
"5.	c #4C4233",
"6.	c #FFE538",
"7.	c #7C5C1A",
"8.	c #FFE637",
"9.	c #C09734",
"0.	c #595556",
"a.	c #FFD328",
"b.	c #FFC914",
"c.	c #635534",
"d.	c #FFD832",
"e.	c #59585E",
"f.	c #837221",
"g.	c #D3BA2E",
"h.	c #1F1C12",
"i.	c #FFDF37",
"j.	c #FFC716",
"              ].V               ",
"            '.6 [ 3.            ",
"          &.m W > (.G           ",
"          }.q i.c p 2.          ",
"        y : z S <./ |.3         ",
"        u A 6.9 9 Y Z a         ",
"      E j.4 8.9 9 1 > s b       ",
"      T , 8 O 9 9 ' 0 a.g       ",
"    5 b.R * d 9 9 ! & U l ^     ",
"    /., } & ; 9 9 ; @ 2 ~ h     ",
"  0.J  .. $ *.9 9 o K + M H k   ",
"  9.v * # . _...g.Q @ @ ` P i   ",
"f < $.. . # #.9 9 ^.+ @ L ).@.e.",
"1.,.| # - ) F 9 9 n & + + e d.r ",
"c.7 j $ $ # ) _ ' - . + * $ t 5.",
"  w N x % % % = = = % 7.B [.D   "};
